<?xml version="1.0" encoding="UTF-8" standalone="no"?>
<svg
   xmlns:dc="http://purl.org/dc/elements/1.1/"
   xmlns:cc="http://creativecommons.org/ns#"
   xmlns:rdf="http://www.w3.org/1999/02/22-rdf-syntax-ns#"
   xmlns:svg="http://www.w3.org/2000/svg"
   xmlns="http://www.w3.org/2000/svg"
   xmlns:sodipodi="http://sodipodi.sourceforge.net/DTD/sodipodi-0.dtd"
   xmlns:inkscape="http://www.inkscape.org/namespaces/inkscape"
   height="16"
   width="16"
   version="1"
   id="svg4"
   sodipodi:docname="mail.svg"
   inkscape:version="0.92.1 r15371">
  <metadata
     id="metadata10">
    <rdf:RDF>
      <cc:Work
         rdf:about="">
        <dc:format>image/svg+xml</dc:format>
        <dc:type
           rdf:resource="http://purl.org/dc/dcmitype/StillImage" />
      </cc:Work>
    </rdf:RDF>
  </metadata>
  <defs
     id="defs8" />
  <sodipodi:namedview
     pagecolor="#ffffff"
     bordercolor="#666666"
     borderopacity="1"
     objecttolerance="10"
     gridtolerance="10"
     guidetolerance="10"
     inkscape:pageopacity="0"
     inkscape:pageshadow="2"
     inkscape:window-width="1498"
     inkscape:window-height="989"
     id="namedview6"
     showgrid="false"
     inkscape:zoom="45.254834"
     inkscape:cx="11.419863"
     inkscape:cy="12.294762"
     inkscape:window-x="846"
     inkscape:window-y="181"
     inkscape:window-maximized="0"
     inkscape:current-layer="svg4" />
  <path
     d="m 0.99169492,1.7457627 a 0.887,0.887 0 0 0 -0.89,0.89 v 8.2220003 c 0,0.492 0.396,0.888 0.89,0.888 H 15.211695 c 0.494,0 0.89,-0.396 0.89,-0.888 V 2.6357627 a 0.887,0.887 0 0 0 -0.89,-0.89 z m 0.74999998,1.028 6.08,6.082 h 0.528 l 6.1100001,-6.082 0.612,0.61 -3.64,3.696 2.75,2.805 -0.61,0.6100003 -2.805,-2.8050003 -2.0250001,2.056 h -1.28 l -2.025,-2.055 -2.806,2.8330003 -0.61,-0.6400003 2.777,-2.804 -3.668,-3.694 z"
     id="path2"
     style="stroke:none;stroke-opacity:1;fill:#ffffff;fill-opacity:1"
     inkscape:connector-curvature="0" />
</svg>
