<?xml version="1.0" encoding="UTF-8" standalone="no"?>
<svg
   xmlns:dc="http://purl.org/dc/elements/1.1/"
   xmlns:cc="http://creativecommons.org/ns#"
   xmlns:rdf="http://www.w3.org/1999/02/22-rdf-syntax-ns#"
   xmlns:svg="http://www.w3.org/2000/svg"
   xmlns="http://www.w3.org/2000/svg"
   xmlns:sodipodi="http://sodipodi.sourceforge.net/DTD/sodipodi-0.dtd"
   xmlns:inkscape="http://www.inkscape.org/namespaces/inkscape"
   height="16"
   width="16"
   version="1"
   id="svg4"
   sodipodi:docname="settings.svg"
   inkscape:version="0.92.1 r15371">
  <metadata
     id="metadata10">
    <rdf:RDF>
      <cc:Work
         rdf:about="">
        <dc:format>image/svg+xml</dc:format>
        <dc:type
           rdf:resource="http://purl.org/dc/dcmitype/StillImage" />
        <dc:title></dc:title>
      </cc:Work>
    </rdf:RDF>
  </metadata>
  <defs
     id="defs8" />
  <sodipodi:namedview
     pagecolor="#ffffff"
     bordercolor="#666666"
     borderopacity="1"
     objecttolerance="10"
     gridtolerance="10"
     guidetolerance="10"
     inkscape:pageopacity="0"
     inkscape:pageshadow="2"
     inkscape:window-width="1230"
     inkscape:window-height="947"
     id="namedview6"
     showgrid="false"
     inkscape:zoom="22.627417"
     inkscape:cx="15.985116"
     inkscape:cy="14.745754"
     inkscape:window-x="1198"
     inkscape:window-y="55"
     inkscape:window-maximized="0"
     inkscape:current-layer="svg4" />
  <path
     style="opacity:1;fill:#f2f2f2;fill-opacity:1;stroke:none;stroke-width:0.06779661;stroke-opacity:1"
     d="M 6.6613551,14.845509 C 6.5719616,14.74673 6.5491525,14.576972 6.5491525,14.010433 V 13.299338 L 6.1770161,13.182033 C 5.972341,13.117515 5.6336498,12.974655 5.4243689,12.864567 5.215088,12.754479 5.0110111,12.664407 4.9708647,12.664407 c -0.040146,0 -0.3081211,0.228813 -0.5954994,0.508474 -0.2873783,0.279661 -0.5771004,0.508475 -0.6438269,0.508475 -0.066726,0 -0.5164164,-0.391919 -0.999311,-0.870931 -0.7023845,-0.696737 -0.8779901,-0.9083 -0.8779901,-1.057772 0,-0.14166 0.1238126,-0.312225 0.5120054,-0.70534 L 2.8782481,10.528814 2.701281,10.189831 C 2.6039491,10.00339 2.4571407,9.6677966 2.37504,9.4440678 L 2.225766,9.0372881 1.5000699,9.0033898 C 0.48791671,8.9561105 0.51525424,8.9986637 0.51525424,7.4704556 c 0,-1.4965789 -0.0312064,-1.4501166 0.97396966,-1.4501166 H 2.1920071 L 2.3713329,5.5288136 C 2.4699622,5.2584746 2.6243892,4.9152542 2.714504,4.7661017 L 2.8783493,4.4949153 2.3747679,3.9772771 C 1.6687605,3.2515625 1.6637222,3.2762338 2.7365359,2.2058015 3.3537073,1.59 3.6475963,1.3423729 3.7612706,1.3423729 c 0.106832,0 0.3332468,0.1691926 0.686678,0.5131328 L 4.9752414,2.3686384 5.4062647,2.1508691 C 5.6433276,2.0310959 5.9898305,1.8812823 6.1762712,1.8179498 L 6.5152542,1.7027999 6.5491525,0.94363451 C 6.574771,0.36990038 6.6078905,0.16881769 6.6847458,0.12039136 6.740678,0.08514859 7.3384922,0.05584643 8.013221,0.05527544 9.5237702,0.05399715 9.4512942,0.00746624 9.4788251,0.99622658 l 0.01948,0.69961732 0.4087396,0.1535099 c 0.2248073,0.08443 0.5722893,0.2363869 0.7721833,0.337681 l 0.363445,0.1841712 0.517452,-0.5144165 c 0.366828,-0.3646767 0.566636,-0.5144166 0.686421,-0.5144166 0.240136,0 1.895827,1.6573683 1.895827,1.8977478 0,0.1173891 -0.152888,0.3208391 -0.514294,0.6843773 l -0.514295,0.5173284 0.218931,0.4333241 c 0.120412,0.2383282 0.270797,0.5858664 0.334189,0.7723071 l 0.115257,0.3389831 0.719337,0.019211 c 1.010024,0.026974 0.996807,0.00698 0.996807,1.5078446 0,1.4783322 0.02346,1.4427498 -0.982317,1.4898935 l -0.723197,0.033898 -0.185992,0.4745763 c -0.102295,0.261017 -0.249763,0.5966109 -0.327706,0.7457629 l -0.141715,0.271187 0.502497,0.517638 c 0.701718,0.72286 0.707372,0.69546 -0.364787,1.767619 -0.613254,0.613254 -0.913403,0.867285 -1.024735,0.867285 -0.104577,0 -0.336519,-0.174261 -0.690699,-0.51893 l -0.533249,-0.518928 -0.594558,0.276164 c -0.327008,0.151891 -0.6784572,0.297191 -0.7809995,0.322889 l -0.1864407,0.04672 v 0.727905 c 0,0.998633 0.071475,0.952311 -1.4694068,0.952311 -1.0972124,0 -1.2328542,-0.01261 -1.3336449,-0.123983 z M 9.1496217,10.628315 C 9.6114556,10.455521 10.241538,10.001955 10.535702,9.6305417 10.861148,9.2196325 11.162829,8.5207993 11.245592,7.9861051 11.518942,6.2201096 10.282253,4.5112231 8.4924549,4.1817573 6.9263078,3.8934611 5.2478397,5.0340569 4.8197741,6.6775117 4.543385,7.7386414 4.8688565,9.0101424 5.6213296,9.8089044 c 0.1187772,0.1260841 0.3933086,0.3454586 0.6100699,0.4874986 0.8995726,0.589477 1.9197069,0.705505 2.9182222,0.331912 z"
     id="path4487"
     inkscape:connector-curvature="0" />
</svg>
