<?xml version="1.0" encoding="UTF-8" standalone="no"?>
<svg
   xmlns:dc="http://purl.org/dc/elements/1.1/"
   xmlns:cc="http://creativecommons.org/ns#"
   xmlns:rdf="http://www.w3.org/1999/02/22-rdf-syntax-ns#"
   xmlns:svg="http://www.w3.org/2000/svg"
   xmlns="http://www.w3.org/2000/svg"
   xmlns:sodipodi="http://sodipodi.sourceforge.net/DTD/sodipodi-0.dtd"
   xmlns:inkscape="http://www.inkscape.org/namespaces/inkscape"
   height="44"
   width="14"
   version="1.1"
   id="svg2"
   inkscape:version="0.91 r13725"
   sodipodi:docname="breadcrumb.svg">
  <metadata
     id="metadata10">
    <rdf:RDF>
      <cc:Work
         rdf:about="">
        <dc:format>image/svg+xml</dc:format>
        <dc:type
           rdf:resource="http://purl.org/dc/dcmitype/StillImage" />
      </cc:Work>
    </rdf:RDF>
  </metadata>
  <defs
     id="defs8" />
  <sodipodi:namedview
     pagecolor="#ffffff"
     bordercolor="#666666"
     borderopacity="1"
     objecttolerance="10"
     gridtolerance="10"
     guidetolerance="10"
     inkscape:pageopacity="0"
     inkscape:pageshadow="2"
     inkscape:window-width="1362"
     inkscape:window-height="1131"
     id="namedview6"
     showgrid="false"
     inkscape:zoom="15.170655"
     inkscape:cx="5.0017727"
     inkscape:cy="24.597195"
     inkscape:window-x="988"
     inkscape:window-y="166"
     inkscape:window-maximized="0"
     inkscape:current-layer="svg2" />
  <path
     style="fill:#f19a2b;fill-opacity:1;stroke:none"
     d="m 0.35740821,44.035318 c -0.21164029,-0.06493 -0.39999803,-0.126256 -0.41857278,-0.136279 -0.01857475,-0.01002 2.70608707,-2.679569 6.05480397,-5.932323 3.3487169,-3.252753 6.0885756,-5.9288 6.0885756,-5.946772 0,-0.01797 -2.7232649,-2.677825 -6.0517013,-5.910787 -3.328436,-3.232962 -6.06057489,-5.898943 -6.07141962,-5.924402 -0.02219623,-0.05211 0.82539112,-0.330651 0.89431857,-0.2939 0.0243657,0.01299 2.84766985,2.747362 6.27400945,6.07638 l 6.2297079,6.052758 -6.2405576,6.067689 c -3.4323072,3.337228 -6.27066455,6.067239 -6.30746099,6.066689 -0.0367965,-5.48e-4 -0.24006294,-0.05412 -0.4517032,-0.119053 z"
     id="path4138"
     inkscape:connector-curvature="0" />
</svg>
