<?xml version="1.0" encoding="UTF-8" standalone="no"?>
<!-- Created with Inkscape (http://www.inkscape.org/) -->

<svg
   xmlns:dc="http://purl.org/dc/elements/1.1/"
   xmlns:cc="http://creativecommons.org/ns#"
   xmlns:rdf="http://www.w3.org/1999/02/22-rdf-syntax-ns#"
   xmlns:svg="http://www.w3.org/2000/svg"
   xmlns="http://www.w3.org/2000/svg"
   xmlns:sodipodi="http://sodipodi.sourceforge.net/DTD/sodipodi-0.dtd"
   xmlns:inkscape="http://www.inkscape.org/namespaces/inkscape"
   width="504"
   height="495.35266"
   id="svg3015"
   version="1.1"
   inkscape:version="0.92.5 (2060ec1f9f, 2020-04-08)"
   sodipodi:docname="locks.svg">
  <defs
     id="defs3017" />
  <sodipodi:namedview
     id="base"
     pagecolor="#ffffff"
     bordercolor="#666666"
     borderopacity="1.0"
     inkscape:pageopacity="0.0"
     inkscape:pageshadow="2"
     inkscape:zoom="1.143872"
     inkscape:cx="267.01786"
     inkscape:cy="209.52705"
     inkscape:document-units="px"
     inkscape:current-layer="layer1"
     showgrid="false"
     fit-margin-top="2"
     fit-margin-left="2"
     fit-margin-right="2"
     fit-margin-bottom="2"
     inkscape:window-width="1335"
     inkscape:window-height="856"
     inkscape:window-x="429"
     inkscape:window-y="184"
     inkscape:window-maximized="0" />
  <metadata
     id="metadata3020">
    <rdf:RDF>
      <cc:Work
         rdf:about="">
        <dc:format>image/svg+xml</dc:format>
        <dc:type
           rdf:resource="http://purl.org/dc/dcmitype/StillImage" />
        <dc:title></dc:title>
      </cc:Work>
    </rdf:RDF>
  </metadata>
  <g
     inkscape:label="Layer 1"
     inkscape:groupmode="layer"
     id="layer1"
     transform="translate(-76.571429,-138.97157)">
    <g
       transform="matrix(22.012464,0,0,-22.012464,-152.11296,862.6933)"
       id="g2998">
      <path
         d="m 15.8344,14.2836 h 11.748 v 14.6852 h -11.748 z"
         style="fill:#ffffff;fill-opacity:1;fill-rule:nonzero;stroke:none"
         id="path14"
         inkscape:connector-curvature="0" />
      <path
         d="m 27.1113,16.2777 -2.182,4.9621 c 0.8437,0.5543 1.3707,1.5079 1.3707,2.5305 0,1.6688 -1.3578,3.0266 -3.027,3.0266 -1.6687,0 -3.0265,-1.3578 -3.0265,-3.0266 0,-1.0226 0.5265,-1.9762 1.3703,-2.5305 l -2.1816,-4.9621 z m -7.9277,1.0313 0.3445,0.7844 h -1.7633 l 1.8172,4.1332 -0.3449,0.1632 c -0.6949,0.3293 -1.1441,1.0372 -1.1441,1.8032 0,1.1011 0.8953,1.9968 1.9961,1.9968 0.1343,0 0.266,-0.014 0.3929,-0.0394 0.1969,0.2309 0.4219,0.4359 0.6696,0.6121 -0.3274,0.1359 -0.6864,0.2117 -1.0625,0.2117 -1.5332,0 -2.7809,-1.2472 -2.7809,-2.7812 0,-0.9395 0.484,-1.8157 1.2594,-2.3246 L 16.5629,17.309 Z m 12.3582,7.7359 c 1.2914,-1.4535 1.9258,-3.4629 1.5406,-5.5222 -0.3847,-2.059 -1.7027,-3.7036 -3.432,-4.5918 -0.6133,-1.8454 -2.0363,-3.3996 -4.0121,-4.0954 -1.9758,-0.696 -4.0586,-0.3769 -5.693,0.6766 -1.9043,-0.3918 -3.9621,0.0637 -5.5527,1.4266 -1.5906,1.3633 -2.3559,3.3265 -2.2606,5.2687 -1.2914,1.4531 -1.9257,3.4629 -1.5406,5.5219 0.3852,2.0594 1.7031,3.7035 3.4324,4.5918 0.6129,1.8449 2.036,3.3992 4.0117,4.0957 1.9758,0.6961 4.059,0.377 5.693,-0.677 1.9043,0.3918 3.9621,-0.0632 5.5528,-1.4265 1.5906,-1.3629 2.3558,-3.3266 2.2605,-5.2684 z m -7.7164,-3.4148 1.9777,-4.4985 h -5.0597 l 1.9777,4.4985 -0.375,0.1773 c -0.757,0.3586 -1.2457,1.1289 -1.2457,1.9625 0,1.1985 0.9746,2.1731 2.1726,2.1731 1.1985,0 2.1731,-0.9746 2.1731,-2.1731 0,-0.8336 -0.4891,-1.6039 -1.2457,-1.9625 l -0.375,-0.1773"
         style="fill:#f57c14;fill-opacity:1;fill-rule:nonzero;stroke:none"
         id="path18"
         inkscape:connector-curvature="0" />
    </g>
  </g>
</svg>
