<?xml version="1.0" encoding="UTF-8" standalone="no"?>
<svg
   xmlns:dc="http://purl.org/dc/elements/1.1/"
   xmlns:cc="http://creativecommons.org/ns#"
   xmlns:rdf="http://www.w3.org/1999/02/22-rdf-syntax-ns#"
   xmlns:svg="http://www.w3.org/2000/svg"
   xmlns="http://www.w3.org/2000/svg"
   xmlns:sodipodi="http://sodipodi.sourceforge.net/DTD/sodipodi-0.dtd"
   xmlns:inkscape="http://www.inkscape.org/namespaces/inkscape"
   height="16"
   width="16"
   version="1.0"
   id="svg2"
   inkscape:version="0.91 r13725"
   sodipodi:docname="folder-shared.svg">
  <metadata
     id="metadata10">
    <rdf:RDF>
      <cc:Work
         rdf:about="">
        <dc:format>image/svg+xml</dc:format>
        <dc:type
           rdf:resource="http://purl.org/dc/dcmitype/StillImage" />
      </cc:Work>
    </rdf:RDF>
  </metadata>
  <defs
     id="defs8" />
  <sodipodi:namedview
     pagecolor="#ffffff"
     bordercolor="#666666"
     borderopacity="1"
     objecttolerance="10"
     gridtolerance="10"
     guidetolerance="10"
     inkscape:pageopacity="0"
     inkscape:pageshadow="2"
     inkscape:window-width="1484"
     inkscape:window-height="1034"
     id="namedview6"
     showgrid="false"
     inkscape:zoom="41.7193"
     inkscape:cx="6.0254311"
     inkscape:cy="8.5671485"
     inkscape:window-x="791"
     inkscape:window-y="198"
     inkscape:window-maximized="0"
     inkscape:current-layer="svg2" />
  <path
     d="m 1.7005972,1.3288478 c -0.2505,0 -0.4609,0.2104 -0.4609,0.4609 l 0,11.0780002 c 0,0.259 0.2021,0.461 0.4609,0.461 l 13.0779998,0 c 0.259,0 0.461,-0.202 0.461,-0.461 l 0,-9.0761002 c 0,-0.2504 -0.21,-0.4629 -0.461,-0.4629 l -6.5389998,0 -2,-2 -4.5391,0 z m 8.6520998,3.4941 c 0.679,0 1.227,0.5503 1.227,1.2286 0,0.6782 -0.548,1.2285 -1.227,1.2285 -0.3022,0 -0.5805998,-0.1097 -0.7945998,-0.291 l -2.3692,1.207 c 0.003,0.035 0.0078,0.0714 0.0078,0.1074 0,0.0641 -0.0081,0.1281 -0.0175,0.1895 l 2.3476,1.1989 c 0.2182,-0.198 0.5078998,-0.32 0.8258998,-0.32 0.679,0 1.229,0.552 1.229,1.2300002 0,0.679 -0.55,1.227 -1.229,1.227 -0.6779998,0 -1.2281998,-0.548 -1.2281998,-1.227 0,-0.022 0.0027,-0.046 0.0039,-0.068 l -2.4317,-1.2362002 c -0.2039,0.1512 -0.4574,0.2382 -0.7304,0.2382 -0.6783,0 -1.2266,-0.5483 -1.2266,-1.2265 0,-0.6783 0.5483,-1.2266 1.2266,-1.2266 0.3043,0 0.5842,0.1096 0.7988,0.293 l 2.3672,-1.2071 c -0.0033,-0.0366 -0.0078,-0.0757 -0.0078,-0.1132 0,-0.6783 0.5502,-1.2266 1.2281998,-1.2266 l 0,-0.0059 z"
     id="path4"
     inkscape:connector-curvature="0"
     style="fill:#f19a2b;fill-rule:evenodd;fill-opacity:1" />
</svg>
