<?xml version="1.0" encoding="UTF-8" standalone="no"?>
<!-- Created with Inkscape (http://www.inkscape.org/) -->

<svg
   xmlns:dc="http://purl.org/dc/elements/1.1/"
   xmlns:cc="http://creativecommons.org/ns#"
   xmlns:rdf="http://www.w3.org/1999/02/22-rdf-syntax-ns#"
   xmlns:svg="http://www.w3.org/2000/svg"
   xmlns="http://www.w3.org/2000/svg"
   xmlns:sodipodi="http://sodipodi.sourceforge.net/DTD/sodipodi-0.dtd"
   xmlns:inkscape="http://www.inkscape.org/namespaces/inkscape"
   width="75"
   height="32"
   id="svg2"
   version="1.1"
   inkscape:version="0.48.4 r9939"
   sodipodi:docname="New document 1">
  <defs
     id="defs4" />
  <sodipodi:namedview
     id="base"
     pagecolor="#ffffff"
     bordercolor="#666666"
     borderopacity="1.0"
     inkscape:pageopacity="0.0"
     inkscape:pageshadow="2"
     inkscape:zoom="7.9195959"
     inkscape:cx="48.378442"
     inkscape:cy="-10.485802"
     inkscape:document-units="px"
     inkscape:current-layer="g2995"
     showgrid="false"
     fit-margin-top="0"
     fit-margin-left="0"
     fit-margin-right="0"
     fit-margin-bottom="0"
     inkscape:window-width="1934"
     inkscape:window-height="1230"
     inkscape:window-x="428"
     inkscape:window-y="57"
     inkscape:window-maximized="0" />
  <metadata
     id="metadata7">
    <rdf:RDF>
      <cc:Work
         rdf:about="">
        <dc:format>image/svg+xml</dc:format>
        <dc:type
           rdf:resource="http://purl.org/dc/dcmitype/StillImage" />
        <dc:title></dc:title>
      </cc:Work>
    </rdf:RDF>
  </metadata>
  <g
     inkscape:label="Layer 1"
     inkscape:groupmode="layer"
     id="layer1"
     transform="translate(-348.47662,-507.30423)">
    <g
       transform="translate(121.13812,-13.206628)"
       id="layer1-6"
       inkscape:label="Layer 1">
      <g
         id="g2993"
         inkscape:label="ink_ext_XXXXXX"
         transform="matrix(1.3899991,0,0,-1.3899991,215.80216,566.55267)">
        <g
           id="g2995"
           transform="scale(0.1,0.1)">
          <path
             inkscape:connector-curvature="0"
             d="m 158.344,142.836 117.48,0 0,146.852 -117.48,0 0,-146.852 z"
             style="fill:#ffffff;fill-opacity:1;fill-rule:nonzero;stroke:none"
             id="path2997" />
          <path
             inkscape:connector-curvature="0"
             d="m 599.473,173.633 c 0.144,-3.887 -1.578,-5.887 -4.883,-5.887 -3.305,0 -5.024,2 -5.168,5.887 l 0.008,88.422 c -0.141,3.883 1.582,5.886 4.886,5.886 3.301,0 5.024,-2.003 5.164,-5.886 l -0.007,-88.422 z m -61.723,46.652 -21.676,0 0,37.61 21.676,0 c 10.77,0 18.805,-8.473 18.805,-18.661 0,-10.332 -8.035,-18.949 -18.805,-18.949 z m -0.141,47.656 -24.691,0 c -4.594,0 -6.895,-2.289 -6.895,-6.886 l 0,-87.422 c 0,-3.887 1.723,-5.887 5.028,-5.887 3.301,0 5.023,2 5.023,5.887 l 0,36.465 21.535,0 c 15.645,0 29,13.203 29,28.992 0,15.648 -13.355,28.851 -29,28.851 z M 437.035,175.633 c -23.547,0 -41.777,18.961 -41.777,42.066 0,23.117 17.945,42.926 41.777,42.926 23.258,0 42.207,-19.234 42.207,-42.352 0,-23.835 -18.379,-42.64 -42.207,-42.64 z m -0.574,95.039 c -29.285,0 -51.68,-24.551 -51.68,-52.973 0,-28.707 23.543,-51.683 52.399,-51.683 29.285,0 52.398,23.121 52.398,52.257 0,28.575 -22.969,52.399 -53.117,52.399"
             style="fill:#ffffff;fill-opacity:1;fill-rule:nonzero;stroke:none"
             id="path2999" />
          <path
             inkscape:connector-curvature="0"
             d="m 271.113,162.777 -21.82,49.621 c 8.437,5.543 13.707,15.079 13.707,25.305 0,16.688 -13.578,30.266 -30.27,30.266 -16.687,0 -30.265,-13.578 -30.265,-30.266 0,-10.226 5.265,-19.762 13.703,-25.305 l -21.816,-49.621 76.761,0 z m -79.277,10.313 3.445,7.844 -17.633,0 18.172,41.332 -3.449,1.632 c -6.949,3.293 -11.441,10.372 -11.441,18.032 0,11.011 8.953,19.968 19.961,19.968 1.343,0 2.66,-0.14 3.929,-0.394 1.969,2.309 4.219,4.359 6.696,6.121 -3.274,1.359 -6.864,2.117 -10.625,2.117 -15.332,0 -27.809,-12.472 -27.809,-27.812 0,-9.395 4.84,-18.157 12.594,-23.246 l -20.047,-45.594 26.207,0 z m 123.582,77.359 c 12.914,-14.535 19.258,-34.629 15.406,-55.222 -3.847,-20.59 -17.027,-37.036 -34.32,-45.918 -6.133,-18.454 -20.363,-33.996 -40.121,-40.954 -19.758,-6.96 -40.586,-3.769 -56.93,6.766 -19.043,-3.918 -39.621,0.637 -55.527,14.266 -15.906,13.633 -23.559,33.265 -22.606,52.687 -12.914,14.531 -19.257,34.629 -15.406,55.219 3.852,20.594 17.031,37.035 34.324,45.918 6.129,18.449 20.36,33.992 40.117,40.957 19.758,6.961 40.59,3.77 56.93,-6.77 19.043,3.918 39.621,-0.632 55.528,-14.265 15.906,-13.629 23.558,-33.266 22.605,-52.684 z m -77.164,-34.148 19.777,-44.985 -50.597,0 19.777,44.985 -3.75,1.773 c -7.57,3.586 -12.457,11.289 -12.457,19.625 0,11.985 9.746,21.731 21.726,21.731 11.985,0 21.731,-9.746 21.731,-21.731 0,-8.336 -4.891,-16.039 -12.457,-19.625 l -3.75,-1.773"
             style="fill:#f57c14;fill-opacity:1;fill-rule:nonzero;stroke:none"
             id="path3001" />
        </g>
      </g>
    </g>
  </g>
</svg>
